<svg xmlns="http://www.w3.org/2000/svg" xmlns:se="http://svg-edit.googlecode.com" xmlns:xlink="http://www.w3.org/1999/xlink" xmlns:dc="http://purl.org/dc/elements/1.1/" xmlns:cc="http://creativecommons.org/ns#" xmlns:rdf="http://www.w3.org/1999/02/22-rdf-syntax-ns#" xmlns:inkscape="http://www.inkscape.org/namespaces/inkscape" width="180" height="180" style="">                                    <title>my vector image</title>                                    <!-- Created with Vector Paint - http://www.vectorpaint.yaks.com/ https://chrome.google.com/webstore/detail/hnbpdiengicdefcjecjbnjnoifekhgdo -->                                    <rect id="backgroundrect" width="100%" height="100%" x="0" y="0" fill="#FFFFFF" stroke="none" style="" class=""/>                                <g class="currentLayer" style=""><title>Layer 1</title><path fill="#3feacb" stroke="#222222" stroke-width="2" stroke-linejoin="round" stroke-dashoffset="" fill-rule="nonzero" marker-start="" marker-mid="" marker-end="" id="svg_5" d="M0.9999999636627461,90.21568695937566 L0.9999999636627461,90.21568695937566 C0.9999999636627461,40.94322819003747 40.94322822850661,0.9999999251936136 90.21568699784473,0.9999999251936136 L90.21568699784473,0.9999999251936136 C113.8771481810303,0.9999999251936136 136.56951743597466,10.399477304874964 153.30069207508507,27.130663919245325 C170.03188467708554,43.86185652124572 179.43137403202684,66.55420781330005 179.43137403202684,90.21568695937566 L179.43137403202684,90.21568695937566 C179.43137403202684,139.488139741084 139.48814576718294,179.43137399355751 90.21568699784473,179.43137399355751 L90.21568699784473,179.43137399355751 C40.943234216136624,179.43137399355751 0.9999999636627461,139.488139741084 0.9999999636627461,90.21568695937566 zM45.60784348075373,90.21568695937566 L45.60784348075373,90.21568695937566 C45.60784348075373,114.85191035641472 65.5794695884357,134.82353047646663 90.21568699784473,134.82353047646663 C114.85192237014385,134.82353047646663 134.82353051493575,114.85191035641472 134.82353051493575,90.21568695937566 C134.82353051493575,65.5794635623366 114.85191039488367,45.60784344228466 90.21568699784473,45.60784344228466 L90.21568699784473,45.60784344228466 C65.5794695884357,45.60784344228466 45.60784348075373,65.57946954996657 45.60784348075373,90.21568695937566 z" style="color: rgb(0, 0, 0);" class="" fill-opacity="1"/></g></svg>